<svg xmlns="http://www.w3.org/2000/svg" width="28.777" height="28.095" viewBox="0 0 28.777 28.095">
  <g id="cart" transform="translate(4.38)">
    <path id="Path_2" data-name="Path 2" d="M39.146,379.875a3.559,3.559,0,1,0,3.505,3.559A3.536,3.536,0,0,0,39.146,379.875Zm0,4.918a1.359,1.359,0,1,1,1.339-1.359A1.351,1.351,0,0,1,39.146,384.793Z" transform="translate(-36.636 -358.898)"/>
    <path id="Path_3" data-name="Path 3" d="M297.661,379.875a3.56,3.56,0,1,0,3.488,3.559A3.528,3.528,0,0,0,297.661,379.875Zm0,4.918a1.359,1.359,0,1,1,1.332-1.359A1.347,1.347,0,0,1,297.661,384.793Z" transform="translate(-281.954 -358.898)"/>
    <path id="Path_4" data-name="Path 4" d="M27.027,0l-.6,3.485H2L3.747,13.7A3.222,3.222,0,0,0,6.9,16.256H24.235l-.4,2.323H4.959v1.743H25.387l3.19-18.579h2.2V0ZM24.534,14.514H6.9a1.437,1.437,0,0,1-1.35-1.094l-1.4-8.192H26.129Z" transform="translate(-6.379)"/>
  </g>
</svg>
