<svg xmlns="http://www.w3.org/2000/svg" width="27" height="27.75" viewBox="0 0 27 27.75">
  <g id="search" transform="translate(0 -0.198)">
    <g id="Group_1" data-name="Group 1" transform="translate(0 0.198)">
      <path id="Path_1" data-name="Path 1" d="M26.661,25.969,18.915,18a10.951,10.951,0,0,0,2.447-6.921C21.237,4.947,16.461.082,10.685.2,4.906.086.129,4.951,0,11.081c.124,6.126,4.9,10.991,10.673,10.876A10.513,10.513,0,0,0,17.3,19.6l7.774,8a1.069,1.069,0,0,0,1.583,0,1.144,1.144,0,0,0,0-1.628ZM2.269,11.081a8.481,8.481,0,0,1,8.4-8.543,8.481,8.481,0,0,1,8.4,8.543,8.481,8.481,0,0,1-8.4,8.542,8.484,8.484,0,0,1-8.4-8.542Z" transform="translate(0 -0.198)"/>
    </g>
  </g>
</svg>
